# xmcd
#
# Track frame offsets: 
#        150
#        25564
#        38357
#        53050
#        60411
#        74005
#        84703
#        103906
#        114403
#        131295
#
# Disc length: 1937 seconds
#
# Revision: 0
# Processed by: cddbd v1.5.1PL2 Copyright (c) Steve Scherf et al.
# Submitted via: ExactAudioCopy v0.95b4
#
DISCID=7a078f0a
DTITLE=Eric Burdon and The Animals - Greatest Hits (tape)
DYEAR=1985
DGENRE=
TTITLE0=Story of Bo Diddley
TTITLE1=Bury My Body
TTITLE2=Dimples
TTITLE3=I've Been Around
TTITLE4=I'm in Love Again
TTITLE5=The Girl Can't Help It
TTITLE6=I'm Mad Again
TTITLE7=She Said Yeah
TTITLE8=The Right Time
TTITLE9=Memphis
EXTD=
EXTT0=
EXTT1=
EXTT2=
EXTT3=
EXTT4=
EXTT5=
EXTT6=
EXTT7=
EXTT8=
EXTT9=
PLAYORDER=
